<svg width="967" height="233" xmlns="http://www.w3.org/2000/svg" xmlns:xlink="http://www.w3.org/1999/xlink" xml:space="preserve" overflow="hidden"><defs><filter id="fx0" x="-10%" y="-10%" width="120%" height="120%" filterUnits="userSpaceOnUse" primitiveUnits="userSpaceOnUse"><feComponentTransfer color-interpolation-filters="sRGB"><feFuncR type="discrete" tableValues="0 0"/><feFuncG type="discrete" tableValues="0 0"/><feFuncB type="discrete" tableValues="0 0"/><feFuncA type="linear" slope="0.4" intercept="0"/></feComponentTransfer><feGaussianBlur stdDeviation="6.11111 6.11111"/></filter><filter id="fx1" x="-10%" y="-10%" width="120%" height="120%" filterUnits="userSpaceOnUse" primitiveUnits="userSpaceOnUse"><feComponentTransfer color-interpolation-filters="sRGB"><feFuncR type="discrete" tableValues="0 0"/><feFuncG type="discrete" tableValues="0 0"/><feFuncB type="discrete" tableValues="0 0"/><feFuncA type="linear" slope="0.4" intercept="0"/></feComponentTransfer><feGaussianBlur stdDeviation="6.11111 6.11111"/></filter><clipPath id="clip2"><rect x="79" y="592" width="967" height="233"/></clipPath><clipPath id="clip3"><rect x="32" y="28" width="550" height="97"/></clipPath></defs><g clip-path="url(#clip2)" transform="translate(-79 -592)"><g filter="url(#fx0)" transform="translate(78 591)"><g><path d="M20 117.667C20 63.8191 63.6523 20.1666 117.5 20.1666L851.501 20.1666C905.349 20.1666 949.001 63.8191 949.001 117.667L949 117.667C949 171.515 905.348 215.168 851.5 215.168L117.5 215.167C63.6523 215.167 20 171.514 20 117.666Z" fill="#E5E7FF" fill-rule="evenodd"/></g></g><g clip-path="url(#clip3)" filter="url(#fx1)" transform="translate(257 639)"><g><path d="M31.185-6.655 31.185 0 4.07 0 4.07-39.05 30.69-39.05 30.69-32.395 11.66-32.395 11.66-22.99 28.105-22.99 28.105-16.83 11.66-16.83 11.66-6.655ZM63.3142 0 55.9442 0 55.9442-16.17C55.9442-18.48 55.5408-20.1667 54.7342-21.23 53.9275-22.2933 52.8092-22.825 51.3792-22.825 50.6458-22.825 49.8942-22.6783 49.1242-22.385 48.3542-22.0917 47.63-21.6792 46.9517-21.1475 46.2733-20.6158 45.6592-19.9833 45.1092-19.25 44.5592-18.5167 44.1558-17.71 43.8992-16.83L43.8992 0 36.5292 0 36.5292-28.82 43.1842-28.82 43.1842-23.485C44.2475-25.3183 45.7875-26.7483 47.8042-27.775 49.8208-28.8017 52.0942-29.315 54.6242-29.315 56.4208-29.315 57.8875-28.985 59.0242-28.325 60.1608-27.665 61.0408-26.8033 61.6642-25.74 62.2875-24.6767 62.7183-23.4667 62.9567-22.11 63.195-20.7533 63.3142-19.3783 63.3142-17.985ZM87.0833-1.485C86.0933-1.045 84.8742-0.605 83.4258-0.165 81.9775 0.275 80.465 0.495 78.8883 0.495 77.8617 0.495 76.8992 0.366667 76.0008 0.11 75.1025-0.146667 74.3142-0.559167 73.6358-1.1275 72.9575-1.69583 72.4167-2.42917 72.0133-3.3275 71.61-4.22583 71.4083-5.31667 71.4083-6.6L71.4083-23.155 67.6683-23.155 67.6683-28.82 71.4083-28.82 71.4083-38.17 78.7783-38.17 78.7783-28.82 84.8833-28.82 84.8833-23.155 78.7783-23.155 78.7783-9.075C78.7783-8.04833 79.0533-7.32417 79.6033-6.9025 80.1533-6.48083 80.8133-6.27 81.5833-6.27 82.3533-6.27 83.105-6.39833 83.8383-6.655 84.5717-6.91167 85.1583-7.13167 85.5983-7.315ZM104.376 0.55C102.066 0.55 99.9762 0.155833 98.1062-0.6325 96.2362-1.42083 94.6412-2.49333 93.3212-3.85 92.0012-5.20667 90.9837-6.78333 90.2687-8.58 89.5537-10.3767 89.1962-12.265 89.1962-14.245 89.1962-16.2983 89.5446-18.2325 90.2412-20.0475 90.9379-21.8625 91.9462-23.4575 93.2662-24.8325 94.5862-26.2075 96.1904-27.2983 98.0787-28.105 99.9671-28.9117 102.085-29.315 104.431-29.315 106.778-29.315 108.877-28.9117 110.729-28.105 112.58-27.2983 114.157-26.2167 115.459-24.86 116.76-23.5033 117.75-21.9267 118.429-20.13 119.107-18.3333 119.446-16.4633 119.446-14.52 119.446-14.0433 119.437-13.585 119.419-13.145 119.4-12.705 119.355-12.3383 119.281-12.045L97.0062-12.045C97.1162-10.9083 97.3912-9.9 97.8312-9.02 98.2712-8.14 98.8396-7.38833 99.5362-6.765 100.233-6.14167 101.021-5.665 101.901-5.335 102.781-5.005 103.698-4.84 104.651-4.84 106.118-4.84 107.502-5.1975 108.804-5.9125 110.105-6.6275 110.995-7.57167 111.471-8.745L117.796-6.985C116.733-4.785 115.037-2.97917 112.709-1.5675 110.38-0.155833 107.603 0.55 104.376 0.55ZM111.856-16.83C111.673-18.9933 110.875-20.7258 109.464-22.0275 108.052-23.3292 106.338-23.98 104.321-23.98 103.331-23.98 102.405-23.8058 101.544-23.4575 100.682-23.1092 99.9212-22.6233 99.2612-22 98.6012-21.3767 98.0604-20.625 97.6387-19.745 97.2171-18.865 96.9696-17.8933 96.8962-16.83ZM141.345-22.44C139.109-22.4033 137.11-21.9725 135.35-21.1475 133.59-20.3225 132.325-19.085 131.555-17.435L131.555 0 124.185 0 124.185-28.82 130.95-28.82 130.95-22.66C131.94-24.64 133.233-26.235 134.828-27.445 136.423-28.655 138.1-29.26 139.86-29.26 140.264-29.26 140.566-29.2508 140.768-29.2325 140.97-29.2142 141.162-29.1867 141.345-29.15ZM175.885-1.485C174.895-1.045 173.676-0.605 172.228-0.165 170.78 0.275 169.267 0.495 167.69 0.495 166.664 0.495 165.701 0.366667 164.803 0.11 163.905-0.146667 163.116-0.559167 162.438-1.1275 161.76-1.69583 161.219-2.42917 160.815-3.3275 160.412-4.22583 160.21-5.31667 160.21-6.6L160.21-23.155 156.47-23.155 156.47-28.82 160.21-28.82 160.21-38.17 167.58-38.17 167.58-28.82 173.685-28.82 173.685-23.155 167.58-23.155 167.58-9.075C167.58-8.04833 167.855-7.32417 168.405-6.9025 168.955-6.48083 169.615-6.27 170.385-6.27 171.155-6.27 171.907-6.39833 172.64-6.655 173.374-6.91167 173.96-7.13167 174.4-7.315ZM206.543 0 199.173 0 199.173-16.17C199.173-18.4433 198.752-20.1208 197.908-21.2025 197.065-22.2842 195.873-22.825 194.333-22.825 193.673-22.825 192.977-22.6783 192.243-22.385 191.51-22.0917 190.813-21.6792 190.153-21.1475 189.493-20.6158 188.888-19.9833 188.338-19.25 187.788-18.5167 187.385-17.71 187.128-16.83L187.128 0 179.758 0 179.758-40.15 187.128-40.15 187.128-23.485C188.192-25.355 189.631-26.7942 191.446-27.8025 193.261-28.8108 195.268-29.315 197.468-29.315 199.338-29.315 200.86-28.9942 202.033-28.3525 203.207-27.7108 204.123-26.8583 204.783-25.795 205.443-24.7317 205.902-23.5217 206.158-22.165 206.415-20.8083 206.543-19.415 206.543-17.985ZM226.408 0.55C224.098 0.55 222.007 0.155833 220.137-0.6325 218.267-1.42083 216.672-2.49333 215.352-3.85 214.032-5.20667 213.015-6.78333 212.3-8.58 211.585-10.3767 211.227-12.265 211.227-14.245 211.227-16.2983 211.576-18.2325 212.273-20.0475 212.969-21.8625 213.977-23.4575 215.298-24.8325 216.617-26.2075 218.222-27.2983 220.11-28.105 221.998-28.9117 224.116-29.315 226.462-29.315 228.809-29.315 230.908-28.9117 232.76-28.105 234.612-27.2983 236.188-26.2167 237.49-24.86 238.792-23.5033 239.782-21.9267 240.46-20.13 241.138-18.3333 241.477-16.4633 241.477-14.52 241.477-14.0433 241.468-13.585 241.45-13.145 241.432-12.705 241.386-12.3383 241.312-12.045L219.038-12.045C219.147-10.9083 219.423-9.9 219.863-9.02 220.302-8.14 220.871-7.38833 221.568-6.765 222.264-6.14167 223.052-5.665 223.932-5.335 224.812-5.005 225.729-4.84 226.682-4.84 228.149-4.84 229.533-5.1975 230.835-5.9125 232.137-6.6275 233.026-7.57167 233.503-8.745L239.827-6.985C238.764-4.785 237.068-2.97917 234.74-1.5675 232.412-0.155833 229.634 0.55 226.408 0.55ZM233.887-16.83C233.704-18.9933 232.907-20.7258 231.495-22.0275 230.083-23.3292 228.369-23.98 226.352-23.98 225.362-23.98 224.437-23.8058 223.575-23.4575 222.713-23.1092 221.952-22.6233 221.292-22 220.633-21.3767 220.092-20.625 219.67-19.745 219.248-18.865 219.001-17.8933 218.928-16.83ZM256.204 0 271.604-39.05 277.764-39.05 293.109 0 285.079 0 281.504-9.735 267.809-9.735 264.234 0ZM274.684-30.855 269.074-15.07 280.129-15.07ZM294.873-14.41C294.873-16.4267 295.222-18.3333 295.918-20.13 296.615-21.9267 297.623-23.5033 298.943-24.86 300.263-26.2167 301.858-27.2983 303.728-28.105 305.598-28.9117 307.707-29.315 310.053-29.315 313.207-29.315 315.893-28.6367 318.111-27.28 320.329-25.9233 321.988-24.145 323.088-21.945L315.883-19.745C315.26-20.8083 314.435-21.6242 313.408-22.1925 312.382-22.7608 311.245-23.045 309.998-23.045 308.935-23.045 307.945-22.8342 307.028-22.4125 306.112-21.9908 305.314-21.4042 304.636-20.6525 303.957-19.9008 303.426-18.9933 303.041-17.93 302.656-16.8667 302.463-15.6933 302.463-14.41 302.463-13.1267 302.665-11.9533 303.068-10.89 303.472-9.82667 304.013-8.91 304.691-8.14 305.369-7.37 306.167-6.77417 307.083-6.3525 308-5.93083 308.972-5.72 309.998-5.72 311.318-5.72 312.538-6.05 313.656-6.71 314.774-7.37 315.553-8.17667 315.993-9.13L323.198-6.93C322.208-4.73 320.577-2.93333 318.303-1.54 316.03-0.146667 313.298 0.55 310.108 0.55 307.762 0.55 305.653 0.146667 303.783-0.66 301.913-1.46667 300.318-2.5575 298.998-3.9325 297.678-5.3075 296.661-6.9025 295.946-8.7175 295.231-10.5325 294.873-12.43 294.873-14.41ZM335.491 0.55C334.098 0.55 332.796 0.320833 331.586-0.1375 330.376-0.595833 329.331-1.2375 328.451-2.0625 327.571-2.8875 326.883-3.85 326.388-4.95 325.893-6.05 325.646-7.26 325.646-8.58 325.646-9.93666 325.948-11.1925 326.553-12.3475 327.158-13.5025 328.002-14.4833 329.083-15.29 330.165-16.0967 331.458-16.7292 332.961-17.1875 334.464-17.6458 336.114-17.875 337.911-17.875 339.194-17.875 340.45-17.765 341.678-17.545 342.907-17.325 343.997-17.0133 344.951-16.61L344.951-18.26C344.951-20.1667 344.41-21.6333 343.328-22.66 342.247-23.6867 340.642-24.2 338.516-24.2 336.976-24.2 335.472-23.925 334.006-23.375 332.539-22.825 331.036-22.0183 329.496-20.955L327.241-25.63C330.944-28.0867 334.941-29.315 339.231-29.315 343.374-29.315 346.592-28.2975 348.883-26.2625 351.175-24.2275 352.321-21.285 352.321-17.435L352.321-8.47C352.321-7.7 352.467-7.15 352.761-6.82 353.054-6.49 353.568-6.30667 354.301-6.27L354.301 0C353.604 0.146667 352.953 0.2475 352.348 0.3025 351.743 0.3575 351.221 0.385 350.781 0.385 349.388 0.348333 348.324 0.0275 347.591-0.5775 346.857-1.1825 346.399-1.99833 346.216-3.025L346.051-4.62C344.768-2.93333 343.209-1.65 341.376-0.77 339.543 0.11 337.581 0.55 335.491 0.55ZM337.581-4.84C338.827-4.84 340.01-5.06 341.128-5.5 342.247-5.94 343.117-6.52667 343.741-7.26 344.547-7.88333 344.951-8.58 344.951-9.35L344.951-12.65C344.071-12.98 343.117-13.2458 342.091-13.4475 341.064-13.6492 340.074-13.75 339.121-13.75 337.214-13.75 335.656-13.3192 334.446-12.4575 333.236-11.5958 332.631-10.505 332.631-9.185 332.631-7.93833 333.107-6.9025 334.061-6.0775 335.014-5.2525 336.188-4.84 337.581-4.84ZM371.016 0.55C369.036 0.55 367.212 0.165 365.544-0.605 363.875-1.375 362.436-2.43833 361.226-3.795 360.016-5.15167 359.072-6.7375 358.394-8.5525 357.715-10.3675 357.376-12.32 357.376-14.41 357.376-16.5 357.697-18.4433 358.339-20.24 358.98-22.0367 359.87-23.6133 361.006-24.97 362.143-26.3267 363.5-27.39 365.076-28.16 366.653-28.93 368.376-29.315 370.246-29.315 372.336-29.315 374.234-28.8017 375.939-27.775 377.644-26.7483 378.973-25.41 379.926-23.76L379.926-40.15 387.296-40.15 387.296-8.47C387.296-7.7 387.443-7.15 387.736-6.82 388.03-6.49 388.543-6.30667 389.276-6.27L389.276 0C387.883 0.256667 386.71 0.385 385.756 0.385 384.4 0.348333 383.345 0.0366666 382.594-0.55 381.842-1.13667 381.375-1.96167 381.191-3.025L381.026-5.005C379.963-3.17167 378.533-1.7875 376.736-0.8525 374.94 0.0825 373.033 0.55 371.016 0.55ZM372.941-5.72C373.638-5.72 374.353-5.83917 375.086-6.0775 375.82-6.31583 376.498-6.655 377.121-7.095 377.745-7.535 378.313-8.04833 378.826-8.635 379.34-9.22167 379.725-9.86333 379.981-10.56L379.981-17.435C379.358-19.0483 378.34-20.3867 376.929-21.45 375.517-22.5133 374.041-23.045 372.501-23.045 371.401-23.045 370.384-22.8067 369.449-22.33 368.514-21.8533 367.716-21.2025 367.056-20.3775 366.396-19.5525 365.883-18.6083 365.516-17.545 365.15-16.4817 364.966-15.3817 364.966-14.245 364.966-13.035 365.168-11.9167 365.571-10.89 365.975-9.86333 366.534-8.965 367.249-8.195 367.964-7.425 368.807-6.82 369.779-6.38 370.75-5.94 371.805-5.72 372.941-5.72ZM408.022 0.55C405.712 0.55 403.622 0.155833 401.752-0.6325 399.882-1.42083 398.287-2.49333 396.967-3.85 395.647-5.20667 394.63-6.78333 393.915-8.58 393.2-10.3767 392.842-12.265 392.842-14.245 392.842-16.2983 393.19-18.2325 393.887-20.0475 394.584-21.8625 395.592-23.4575 396.912-24.8325 398.232-26.2075 399.836-27.2983 401.725-28.105 403.613-28.9117 405.73-29.315 408.077-29.315 410.424-29.315 412.523-28.9117 414.375-28.105 416.226-27.2983 417.803-26.2167 419.105-24.86 420.406-23.5033 421.396-21.9267 422.075-20.13 422.753-18.3333 423.092-16.4633 423.092-14.52 423.092-14.0433 423.083-13.585 423.065-13.145 423.046-12.705 423-12.3383 422.927-12.045L400.652-12.045C400.762-10.9083 401.037-9.9 401.477-9.02 401.917-8.14 402.485-7.38833 403.182-6.765 403.879-6.14167 404.667-5.665 405.547-5.335 406.427-5.005 407.344-4.84 408.297-4.84 409.764-4.84 411.148-5.1975 412.45-5.9125 413.751-6.6275 414.64-7.57167 415.117-8.745L421.442-6.985C420.379-4.785 418.683-2.97917 416.355-1.5675 414.026-0.155833 411.249 0.55 408.022 0.55ZM415.502-16.83C415.319-18.9933 414.521-20.7258 413.11-22.0275 411.698-23.3292 409.984-23.98 407.967-23.98 406.977-23.98 406.051-23.8058 405.19-23.4575 404.328-23.1092 403.567-22.6233 402.907-22 402.247-21.3767 401.706-20.625 401.285-19.745 400.863-18.865 400.615-17.8933 400.542-16.83ZM472.601 0 465.231 0 465.231-16.17C465.231-18.48 464.828-20.1667 464.021-21.23 463.215-22.2933 462.115-22.825 460.721-22.825 459.291-22.825 457.935-22.2658 456.651-21.1475 455.368-20.0292 454.451-18.5717 453.901-16.775L453.901 0 446.531 0 446.531-16.17C446.531-18.48 446.137-20.1667 445.349-21.23 444.56-22.2933 443.47-22.825 442.076-22.825 440.646-22.825 439.28-22.275 437.979-21.175 436.677-20.075 435.751-18.6267 435.201-16.83L435.201 0 427.831 0 427.831-28.82 434.486-28.82 434.486-23.485C435.55-25.355 437.007-26.7942 438.859-27.8025 440.71-28.8108 442.828-29.315 445.211-29.315 447.631-29.315 449.492-28.7283 450.794-27.555 452.095-26.3817 452.948-24.9333 453.351-23.21 454.525-25.19 456.01-26.7025 457.806-27.7475 459.603-28.7925 461.656-29.315 463.966-29.315 465.726-29.315 467.175-28.985 468.311-28.325 469.448-27.665 470.328-26.8033 470.951-25.74 471.575-24.6767 472.005-23.4667 472.244-22.11 472.482-20.7533 472.601-19.3783 472.601-17.985ZM479.206 5.61C479.866 5.79333 480.471 5.92167 481.021 5.995 481.571 6.06833 482.048 6.105 482.451 6.105 482.927 6.105 483.349 6.0225 483.716 5.8575 484.082 5.6925 484.44 5.39 484.788 4.95 485.137 4.51 485.485 3.89583 485.833 3.1075 486.182 2.31917 486.557 1.28333 486.961 0L475.521-28.82 483.111-28.82 490.976-6.38 497.906-28.82 504.836-28.82 492.681 5.72C491.911 7.92 490.682 9.61583 488.996 10.8075 487.309 11.9992 485.348 12.595 483.111 12.595 481.828 12.595 480.526 12.3933 479.206 11.99Z" fill="#0C0050" transform="matrix(1 0 0 1 52.7131 90)"/></g></g><path d="M98 699.5C98 645.652 141.652 602 195.5 602L929.501 602C983.349 602 1027 645.652 1027 699.5L1027 699.5C1027 753.349 983.348 797.001 929.5 797.001L195.5 797C141.652 797 98 753.348 98 699.5Z" fill="#E5E7FF" fill-rule="evenodd"/><text fill="#0C0050" font-family="Raleway,Raleway_MSFontService,sans-serif" font-weight="700" font-size="55" transform="matrix(1 0 0 1 309.713 720)">Enter the Academy</text></g></svg>